<svg width="170" height="170" viewBox="0 0 170 170" fill="none" xmlns="http://www.w3.org/2000/svg">
<mask id="mask0_250_17" style="mask-type:alpha" maskUnits="userSpaceOnUse" x="12" y="8" width="146" height="147">
<rect x="12.1429" y="8.5" width="145.714" height="145.714" fill="#D9D9D9"/>
</mask>
<g mask="url(#mask0_250_17)">
<path d="M85 77.6209C79.9911 77.6209 75.7031 75.8374 72.1362 72.2705C68.5692 68.7035 66.7857 64.4156 66.7857 59.4066C66.7857 54.3976 68.5692 50.1096 72.1362 46.5426C75.7031 42.9757 79.9911 41.1922 85 41.1922C90.0089 41.1922 94.2969 42.9757 97.8638 46.5426C101.431 50.1096 103.214 54.3976 103.214 59.4066C103.214 64.4156 101.431 68.7035 97.8638 72.2705C94.2969 75.8374 90.0089 77.6209 85 77.6209ZM42.5 121.522V111.527C42.5 109.021 43.2297 106.676 44.6892 104.493C46.1487 102.309 48.1122 100.614 50.5797 99.4079C56.3086 96.6602 62.0414 94.5994 67.7781 93.2256C73.5149 91.8517 79.2555 91.1648 85 91.1648C90.7445 91.1648 96.4851 91.8517 102.222 93.2256C107.959 94.5994 113.691 96.6602 119.42 99.4079C121.888 100.614 123.851 102.309 125.311 104.493C126.77 106.676 127.5 109.021 127.5 111.527V121.522H42.5ZM48.5714 115.45H121.429V111.527C121.429 110.181 120.995 108.916 120.127 107.733C119.259 106.55 118.058 105.549 116.525 104.732C111.527 102.311 106.375 100.457 101.067 99.1686C95.7599 97.8803 90.4041 97.2362 85 97.2362C79.5959 97.2362 74.2401 97.8803 68.9326 99.1686C63.6249 100.457 58.4725 102.311 53.4753 104.732C51.9419 105.549 50.7412 106.55 49.8733 107.733C49.0054 108.916 48.5714 110.181 48.5714 111.527V115.45ZM85 71.5495C88.3393 71.5495 91.1979 70.3605 93.5759 67.9825C95.9539 65.6046 97.1429 62.7459 97.1429 59.4066C97.1429 56.0674 95.9539 53.2087 93.5759 50.8307C91.1979 48.4528 88.3393 47.2638 85 47.2638C81.6607 47.2638 78.8021 48.4528 76.4241 50.8307C74.0461 53.2087 72.8571 56.0674 72.8571 59.4066C72.8571 62.7459 74.0461 65.6046 76.4241 67.9825C78.8021 70.3605 81.6607 71.5495 85 71.5495Z" fill="#1E1E1E"/>
</g>
<rect x="2.5" y="2.5" width="165" height="165" rx="82.5" stroke="#1E1E1E" stroke-width="5"/>
</svg>
